<svg width="66" height="66" viewBox="0 0 66 66" fill="none" xmlns="http://www.w3.org/2000/svg">
<g filter="url(#filter0_d_7651_10086)">
<circle cx="33" cy="30" r="27" stroke="#212221" stroke-width="2"/>
<path d="M30.9347 31.0651C30.7942 30.9256 30.6826 30.7597 30.6064 30.577C30.5303 30.3942 30.4911 30.1981 30.4911 30.0001C30.4911 29.8021 30.5303 29.6061 30.6064 29.4233C30.6826 29.2405 30.7942 29.0746 30.9347 28.9352L37.8193 22.0656C37.9599 21.9261 38.0715 21.7603 38.1477 21.5775C38.2238 21.3947 38.263 21.1987 38.263 21.0006C38.263 20.8026 38.2238 20.6066 38.1477 20.4238C38.0715 20.241 37.9599 20.0751 37.8193 19.9357C37.5383 19.6563 37.1582 19.4995 36.7619 19.4995C36.3657 19.4995 35.9855 19.6563 35.7045 19.9357L28.8199 26.8203C27.9772 27.664 27.5039 28.8077 27.5039 30.0001C27.5039 31.1926 27.9772 32.3362 28.8199 33.1799L35.7045 40.0645C35.9838 40.3416 36.3609 40.4979 36.7544 40.4995C36.9518 40.5007 37.1475 40.4628 37.3302 40.3882C37.513 40.3135 37.6792 40.2036 37.8193 40.0645C37.9599 39.9251 38.0715 39.7592 38.1477 39.5764C38.2238 39.3937 38.263 39.1976 38.263 38.9996C38.263 38.8016 38.2238 38.6055 38.1477 38.4228C38.0715 38.24 37.9599 38.0741 37.8193 37.9347L30.9347 31.0651Z" fill="#212221"/>
</g>
<defs>
<filter id="filter0_d_7651_10086" x="0" y="0" width="66" height="66" filterUnits="userSpaceOnUse" color-interpolation-filters="sRGB">
<feFlood flood-opacity="0" result="BackgroundImageFix"/>
<feColorMatrix in="SourceAlpha" type="matrix" values="0 0 0 0 0 0 0 0 0 0 0 0 0 0 0 0 0 0 127 0" result="hardAlpha"/>
<feOffset dy="3"/>
<feGaussianBlur stdDeviation="2.5"/>
<feComposite in2="hardAlpha" operator="out"/>
<feColorMatrix type="matrix" values="0 0 0 0 0 0 0 0 0 0 0 0 0 0 0 0 0 0 0.29 0"/>
<feBlend mode="normal" in2="BackgroundImageFix" result="effect1_dropShadow_7651_10086"/>
<feBlend mode="normal" in="SourceGraphic" in2="effect1_dropShadow_7651_10086" result="shape"/>
</filter>
</defs>
</svg>
