<svg width="54" height="72" viewBox="0 0 54 72" fill="none" xmlns="http://www.w3.org/2000/svg">
<path d="M52.5 27H48V21C48 9.42047 38.5796 0 27 0C15.4204 0 6.00005 9.42047 6.00005 21V27H1.50005C0.670922 27 0 27.6709 0 28.5V66.0001C0 69.3091 2.69086 72 6.00005 72H48.0001C51.3091 72 54 69.3091 54 66V28.5C54 27.6709 53.3291 27 52.5 27ZM31.4913 58.3345C31.5381 58.7578 31.402 59.1826 31.1178 59.5005C30.8336 59.8184 30.4263 60 30.0001 60H24C23.5738 60 23.1666 59.8184 22.8824 59.5005C22.5982 59.1827 22.4619 58.7579 22.5089 58.3345L23.4551 49.8253C21.9185 48.7076 21.0001 46.9395 21.0001 45C21.0001 41.691 23.691 39 27.0001 39C30.3093 39 33.0002 41.6908 33.0002 45C33.0002 46.9395 32.0818 48.7076 30.5452 49.8253L31.4913 58.3345ZM39 27H15V21C15 14.3833 20.3833 9 27 9C33.6167 9 39 14.3833 39 21V27Z" fill="#B7CADD"/>
</svg>
